<svg width="28" height="28" viewBox="0 0 28 28" fill="none" xmlns="http://www.w3.org/2000/svg">
<path fill-rule="evenodd" clip-rule="evenodd" d="M6.1234 22.528L5.41735 23.9727C5.27123 24.2717 5.11317 24.5657 4.9421 24.8508C5.28746 24.6895 5.62518 24.4974 5.94734 24.2755L7.2043 23.4101L8.54856 24.1325C10.2129 25.027 12.0879 25.5 13.999 25.5C17.0788 25.5 19.9563 24.3087 22.1325 22.1331C24.3082 19.958 25.5 17.0759 25.5 14.0029C25.5 10.9299 24.3082 8.04786 22.1325 5.87273C19.9544 3.69527 17.0761 2.5 13.999 2.5C10.9192 2.5 8.04167 3.69131 5.86551 5.86686C1.67405 10.0571 1.37272 16.7552 5.10161 21.2864L6.1234 22.528ZM0.965802 25.4258C1.79871 25.0153 2.54363 24.1592 3.17124 22.875C-1.37454 17.3512 -1.00501 9.20042 4.09799 4.09885C6.74334 1.45424 10.2568 0 13.999 0C17.7412 0 21.2546 1.4601 23.9 4.10471C26.5453 6.74932 28 10.2676 28 14.0029C28 17.7382 26.5453 21.2565 23.9 23.9012C21.2546 26.5458 17.7412 28 13.999 28C11.6762 28 9.39456 27.4253 7.36509 26.3347C5.85765 27.3726 4.05107 27.9648 2.33247 27.9648C1.9864 27.9648 1.65207 27.9355 1.3412 27.8886C0.772239 27.8006 0.33819 27.3608 0.250208 26.792C0.16809 26.2291 0.455501 25.6779 0.965802 25.4258Z" fill="#F7AD1E"/>
<circle cx="14" cy="14" r="1.5" fill="#F7AD1E"/>
<circle cx="18.5" cy="14" r="1.5" fill="#F7AD1E"/>
<circle cx="9.5" cy="14" r="1.5" fill="#F7AD1E"/>
</svg>
