<svg width="28" height="28" viewBox="0 0 28 28" fill="none" xmlns="http://www.w3.org/2000/svg">
    <path d="M12.7038 2.22538C13.2824 1.23198 14.7176 1.23198 15.2962 2.22538L18.1933 7.19939C18.4052 7.56329 18.7604 7.82134 19.172 7.91046L24.7978 9.12871C25.9214 9.37202 26.3648 10.7369 25.5989 11.5942L21.7636 15.8865C21.483 16.2006 21.3473 16.6181 21.3897 17.0371L21.9696 22.764C22.0854 23.9078 20.9243 24.7513 19.8723 24.2877L14.6049 21.9665C14.2195 21.7967 13.7805 21.7967 13.3951 21.9665L8.12767 24.2877C7.07567 24.7513 5.91463 23.9078 6.03043 22.764L6.61028 17.0371C6.6527 16.6181 6.51704 16.2006 6.23645 15.8865L2.40113 11.5942C1.63515 10.7369 2.07863 9.37202 3.20221 9.12871L8.82803 7.91046C9.23962 7.82134 9.59478 7.56329 9.80673 7.19939L12.7038 2.22538Z" fill="white" stroke="#F7AD1E" stroke-width="1.5"/>
</svg>
