<svg width="24" height="24" viewBox="0 0 24 24" fill="none" xmlns="http://www.w3.org/2000/svg">
<path fill-rule="evenodd" clip-rule="evenodd" d="M12 24C18.6274 24 24 18.6274 24 12C24 5.37258 18.6274 0 12 0C5.37258 0 0 5.37258 0 12C0 18.6274 5.37258 24 12 24ZM13 17C13 17.5523 12.5523 18 12 18C11.4477 18 11 17.5523 11 17L11 8.8L8.1 11.7C7.7134 12.0866 7.0866 12.0866 6.7 11.7C6.3134 11.3134 6.3134 10.6866 6.7 10.3L12 5L17.3 10.3C17.6866 10.6866 17.6866 11.3134 17.3 11.7C16.9134 12.0866 16.2866 12.0866 15.9 11.7L13 8.8L13 17Z" fill="#FF6125"/>
</svg>
