<svg width="18" height="16" viewBox="0 0 18 16" fill="none" xmlns="http://www.w3.org/2000/svg">
<path d="M8.1543 2.32001L8.72727 2.99839L9.30025 2.32001C10.1202 1.34917 11.3956 0.75 12.6545 0.75C14.9445 0.75 16.7045 2.51129 16.7045 4.80874C16.7045 6.17148 16.0668 7.49043 14.793 9.03013C13.5915 10.4826 11.9054 12.0381 9.847 13.9371C9.71301 14.0607 9.57744 14.1857 9.44033 14.3123L9.43825 14.3143L8.72727 14.9757L8.01629 14.3143L8.00967 14.3081L8.00289 14.3021C5.72122 12.28 3.89441 10.6383 2.63074 9.09806C1.37566 7.56827 0.75 6.22498 0.75 4.80874C0.75 2.51129 2.51005 0.75 4.8 0.75C6.05895 0.75 7.33431 1.34917 8.1543 2.32001Z" stroke="#F7AD1E" stroke-width="1.5"/>
</svg>
